<svg width="24" height="24" xmlns="http://www.w3.org/2000/svg">
 <title/>

 <g>
  <title>background</title>
  <rect fill="none" id="canvas_background" height="26" width="26" y="-1" x="-1"/>
 </g>
 <g>
  <title>Layer 1</title>
  <path fill="#ff7f00" id="svg_1" d="m20,13c0,-0.16907 -0.0163,-0.83392 -0.02808,-1l-15.94384,0c-0.01178,0.16608 -0.02808,0.83093 -0.02808,1l0,1c0,0.57813 0.59167,0.69482 0.59167,1s-0.59167,0.69482 -0.59167,1a3,3 0 0 0 3,3l1,0l0,1.5a1.5,1.5 0 0 0 1.5,1.5l0,-1l1,0l0,1l1,0l0,-1l1,0l0,1l1,0l0,-1l1,0l0,1a1.5,1.5 0 0 0 1.5,-1.5l0,-1.5l1,0a3,3 0 0 0 3,-3c0,-0.45312 -0.59167,-0.69482 -0.59167,-1s0.59167,-0.48437 0.59167,-1l0,-1zm-9.71448,3.08051c-0.48743,2.12024 -1.266,1.75861 -2.29266,1.72424c-1.08942,-0.03735 -1.81812,-0.14087 -2.04645,-0.62524c-0.55939,-0.66034 -0.47235,-3.69159 2.21887,-2.56122c1.21851,-0.48822 2.27155,-0.08258 2.12024,0.46222l0,1zm2.38312,4.25012c-0.52423,0 -0.3988,-0.60828 -0.66864,-0.60358c-0.28345,0.00537 -0.19708,0.60358 -0.70593,0.60358a0.5349,0.5349 0 0 1 -0.52429,-0.67578a6.56615,6.56615 0 0 1 0.75391,-1.48523a0.53565,0.53565 0 0 1 0.91541,0a6.54456,6.54456 0 0 1 0.75446,1.48523a0.53553,0.53553 0 0 1 -0.52492,-0.32422l0,1zm5.35529,-3.15112c-0.22833,0.48438 -0.957,0.58789 -2.04645,0.62524c-1.02667,0.03436 -1.80518,0.396 -2.2926,-1.72424c-0.15131,-0.5448 0.90167,-0.95044 2.12024,-1.46222c2.69122,-2.13037 2.77819,0.90088 2.21881,1.56121l0,1.00001z"/>
  <path fill="#ff7f00" id="svg_2" d="m20,8l-1.07953,0a6.99108,6.99108 0 0 0 -13.84094,0l-1.07953,0a2,2 0 0 0 -2,2a1,1 0 0 0 1,1l18,0a1,1 0 0 0 1,-1a2,2 0 0 0 -2,-2zm-5.70215,0.46973l-1.06055,1.06054l-1.2373,-1.23748l-1.2373,1.23748l-1.06055,-1.06054l1.23737,-1.23755l-1.23737,-1.23755l1.06055,-1.06055l1.2373,1.23749l1.2373,-1.23749l1.06055,1.06055l-1.23736,1.23755l1.23736,1.23755z"/>
 </g>
</svg>