<svg width="64" height="64" xmlns="http://www.w3.org/2000/svg">

 <g>
  <title>background</title>
  <rect fill="none" id="canvas_background" height="66" width="66" y="-1" x="-1"/>
 </g>
 <g>
  <title>Layer 1</title>
  <circle fill="#ffbf0b" id="svg_1" r="32" cy="32" cx="32" class="st10"/>
  <circle fill="#ffd60c" id="svg_2" r="32" cy="31.926471" cx="32" class="st10"/>
  <path fill="#1a1a54" id="svg_3" d="m32,46l0,0c-4.4,0 -8,-3.6 -8,-8l0,-4c0,-1.1 0.9,-2 2,-2l12,0c1.1,0 2,0.9 2,2l0,4c0,4.4 -3.6,8 -8,8z" class="st11"/>
  <path fill="#13e953" id="svg_4" d="m32,46c2.7,0 5.1,-1.3 6.5,-3.4c-1.5,-2 -3.8,-3.3 -6.5,-3.3s-5,1.3 -6.5,3.3c1.4,2.1 3.8,3.4 6.5,3.4z" class="st12"/>
  <path fill="#13e953" id="svg_5" d="m59.9,19.6c1.8,-3.5 1.8,-7.5 -1,-10.3c-2.8,-2.8 -8.4,-2.3 -10.3,1.7c-1.8,-4 -7.4,-4.5 -10.2,-1.7c-2.8,2.8 -3.2,6.3 -1.4,10c3.1,6.4 8.6,9.5 10.8,10.5c0.6,0.3 1.2,0.3 1.7,0c2.1,-1.1 7.4,-4.3 10.4,-10.2z" class="st12"/>
  <path fill="#13e953" id="svg_6" d="m26.9,19.6c1.8,-3.5 1.8,-7.5 -1,-10.3c-2.8,-2.8 -8.4,-2.3 -10.3,1.7c-1.8,-4 -7.4,-4.5 -10.2,-1.7c-2.8,2.8 -3.2,6.3 -1.4,10c3.1,6.4 8.6,9.5 10.8,10.5c0.6,0.3 1.2,0.3 1.7,0c2.1,-1.1 7.4,-4.3 10.4,-10.2z" class="st12"/>
 </g>
</svg>