<?xml version="1.0" encoding="UTF-8" standalone="no"?> <!-- Created with Vectornator for iOS (http://vectornator.io/) --><!DOCTYPE svg PUBLIC "-//W3C//DTD SVG 1.1//EN" "http://www.w3.org/Graphics/SVG/1.1/DTD/svg11.dtd">
<svg height="100%" style="fill-rule:nonzero;clip-rule:evenodd;stroke-linecap:round;stroke-linejoin:round;" xmlns:xlink="http://www.w3.org/1999/xlink" xmlns="http://www.w3.org/2000/svg" xml:space="preserve" width="100%" xmlns:vectornator="http://vectornator.io" version="1.1" viewBox="0 0 1100 700">
<g id="Layer 3." vectornator:layerName="Layer 3.">
<path stroke="#ffffff" stroke-opacity="0" stroke-width="16.5793" d="M156.824+137.213C156.12+137.681+156.108+137.742+156.638+137.213" fill="#16db93" stroke-linecap="round" opacity="1" stroke-linejoin="round"/>
<path stroke="#292929" stroke-opacity="0" stroke-width="5" d="M187.905+194.55L187.184+194.756" fill="none" stroke-linecap="round" opacity="1" stroke-linejoin="round"/>
<path stroke="#ffffff" stroke-opacity="0" stroke-width="16.5793" d="M193.87+255.888L189.876+194.41" fill="none" stroke-linecap="round" opacity="1" stroke-linejoin="round"/>
<path d="M560.857+111.13L560.746+271.042L685.634+271.13L685.746+111.217L560.857+111.13Z" opacity="1" fill="#ffdd1f"/>
<path d="M435.857+111.13L435.746+271.042L560.634+271.13L560.746+111.217L435.857+111.13Z" opacity="1" fill="#ff934f"/>
<path d="M685.857+111.13L685.746+271.042L810.634+271.13L810.746+111.217L685.857+111.13Z" opacity="1" fill="#ff5c8d"/>
<path d="M810.857+111.13L810.746+271.042L935.634+271.13L935.746+111.217L810.857+111.13Z" opacity="1" fill="#3772fb"/>
</g>
<g id=".." vectornator:layerName="..">
<g opacity="1">
<path stroke="#292929" stroke-width="1" d="M554.752+249.868C554.63+250.827+554.384+253.167+554.016+256.886C553.891+258.806+553.408+260.245+552.565+261.203C551.964+261.561+550.944+261.739+549.504+261.735C545.544+261.726+540.626+260.814+534.75+259C528.395+257.185+524.08+255.075+521.805+252.67C520.848+251.708+519.895+248.465+518.948+242.943C517.645+235.74+516.16+229.736+514.491+224.932C509.93+225.522+503.266+227.006+494.5+229.385C485.735+231.764+480.03+233.791+477.386+235.465C475.575+240.14+473.161+245.835+470.146+252.548C469.782+254.107+469.388+255.546+468.965+256.865C468.542+258.184+467.49+259.321+465.807+260.277C465.447+260.397+464.907+260.455+464.187+260.454C461.307+260.447+456.48+259.085+449.706+256.369C442.933+253.653+439.427+251.875+439.189+251.034C438.712+249.593+439.861+245.876+442.635+239.883C446.496+231.252+448.728+225.977+449.333+224.058C446.818+221.772+445.564+219.489+445.569+217.209C445.57+216.729+445.632+216.13+445.753+215.41C445.996+214.09+449.662+211.819+456.749+208.596L480.138+137.191C480.502+135.872+480.567+133.472+480.335+129.991C480.102+127.111+480.467+125.252+481.429+124.414C482.03+123.935+483.47+123.699+485.75+123.704C491.39+123.718+499.427+125.027+509.861+127.631C520.295+130.236+526.53+132.561+528.565+134.606C529.256+146.607+531.914+164.614+536.537+188.625C542.467+218.279+548.539+238.693+554.752+249.868ZM507.888+200.617C506.345+193.773+505.395+189.271+505.04+187.11C503.737+179.907+502.855+172.405+502.394+164.604C499.981+169.878+497.144+177.191+493.882+186.544C490.378+196.375+488.504+202.551+488.258+205.07C490.54+204.236+497.083+202.751+507.888+200.617Z" fill="#f5f5f5" stroke-linecap="butt" opacity="1" stroke-linejoin="round"/>
<path stroke="#292929" stroke-width="1" d="M678.213+201.56C677.843+205.879+675.736+208.634+671.893+209.825C671.173+209.943+670.333+209.761+669.375+209.279C668.416+208.797+667.636+208.555+667.036+208.553C666.316+208.552+665.536+208.73+664.695+209.088C659.977+225.157+656.291+235.948+653.638+241.462C648.814+251.65+642.559+258.296+634.871+261.397C632.829+262.233+630.728+262.648+628.568+262.642C626.408+262.637+621.072+261.245+612.558+258.465C609.32+257.737+604.223+256.165+597.269+253.748C590.316+250.732+584.933+243.759+581.119+232.83C577.662+222.862+575.95+211.038+575.983+197.358C576.025+179.478+578.822+163.584+584.375+149.678C590.411+134.452+598.351+125.951+608.196+124.174C609.036+124.056+609.996+123.998+611.076+124.001C617.076+124.015+624.392+125.772+633.024+129.273C642.255+132.894+648.486+136.929+651.715+141.377C654.347+144.983+656.076+149.547+656.903+155.069C657.968+161.312+658.62+164.733+658.858+165.334C659.214+167.135+659.689+169.296+660.283+171.817C660.4+173.257+659.796+174.936+658.471+176.853C657.147+178.77+655.884+179.907+654.683+180.264C653.122+180.86+648.444+180.099+640.649+177.981C632.854+175.862+628.177+174.201+626.62+172.998C624.463+171.672+623.569+169.09+623.939+165.251C623.94+164.771+624.241+164.112+624.843+163.273C625.445+162.435+625.747+161.715+625.748+161.115C625.767+153.435+624.816+149.593+622.896+149.589C618.816+149.459+615.201+155.631+612.052+168.103C609.144+179.736+607.674+192.453+607.642+206.253C607.593+226.773+610.745+238.54+617.098+241.555C619.016+242.52+621.633+239.586+624.949+232.754C628.265+225.922+630.23+219.566+630.844+213.688C628.927+212.363+625.271+210.674+619.876+208.622C615.56+206.932+613.223+205.486+612.866+204.285C612.39+202.724+612.995+200.445+614.682+197.449C616.369+194.453+618.144+192.538+620.006+191.702C621.868+190.866+624.479+190.393+627.839+190.281C632.399+190.291+635.16+190.178+636.12+189.94C638.161+189.705+641.463+188.813+646.027+187.264C649.75+185.952+652.571+185.299+654.491+185.304C655.211+185.305+655.871+185.367+656.471+185.488C659.469+186.095+663.874+188.566+669.683+192.899C675.493+197.233+678.336+200.12+678.213+201.56Z" fill="#f5f5f5" stroke-linecap="butt" opacity="1" stroke-linejoin="round"/>
<path stroke="#292929" stroke-width="1" d="M804.864+250.459C804.741+251.419+804.496+253.759+804.127+257.478C804.003+259.397+803.519+260.836+802.677+261.794C802.076+262.153+801.056+262.33+799.616+262.327C795.656+262.318+790.738+261.406+784.862+259.592C778.506+257.777+774.191+255.667+771.917+253.261C770.959+252.299+770.007+249.057+769.06+243.535C767.757+236.332+766.271+230.328+764.603+225.524C760.041+226.113+753.378+227.598+744.612+229.977C735.846+232.356+730.141+234.383+727.497+236.056C725.686+240.732+723.273+246.426+720.257+253.139C719.893+254.698+719.5+256.138+719.077+257.457C718.654+258.776+717.601+259.913+715.919+260.869C715.558+260.988+715.018+261.047+714.298+261.045C711.418+261.038+706.592+259.677+699.818+256.961C693.044+254.245+689.539+252.467+689.301+251.626C688.824+250.185+689.973+246.468+692.747+240.474C696.607+231.843+698.84+226.569+699.444+224.65C696.93+222.364+695.675+220.081+695.681+217.801C695.682+217.321+695.743+216.721+695.865+216.001C696.108+214.682+699.773+212.411+706.861+209.187L730.25+137.783C730.613+136.463+730.679+134.064+730.447+130.583C730.214+127.702+730.578+125.843+731.54+125.006C732.141+124.527+733.582+124.29+735.862+124.296C741.502+124.309+749.539+125.618+759.973+128.223C770.407+130.828+776.641+133.152+778.676+135.197C779.368+147.199+782.025+165.205+786.648+189.216C792.578+218.87+798.65+239.285+804.864+250.459ZM758+201.208C756.456+194.365+755.507+189.862+755.152+187.702C753.849+180.499+752.967+172.996+752.505+165.195C750.093+170.47+747.255+177.783+743.993+187.135C740.49+196.967+738.615+203.143+738.369+205.662C740.651+204.827+747.195+203.343+758+201.208Z" fill="#f5f5f5" stroke-linecap="butt" opacity="1" stroke-linejoin="round"/>
<path stroke="#292929" stroke-width="1" d="M915.098+238.48C913.646+243.517+911.359+246.571+908.237+247.644C907.276+248.002+905.986+248.059+904.366+247.815C902.747+247.571+901.577+247.628+900.856+247.986L874.192+258.003C873.352+258.241+872.479+259.139+871.576+260.697C870.672+262.255+869.8+263.093+868.96+263.211C866.318+264.165+860.739+263.372+852.225+260.831C843.711+258.291+838.557+255.939+836.762+253.775C835.446+252.092+835.032+249.391+835.521+245.672C835.765+243.993+835.888+242.673+835.891+241.713L836.148+132.813C835.911+131.733+835.433+130.801+834.715+130.02C833.997+129.238+833.638+128.607+833.639+128.127C833.884+126.088+835.988+124.593+839.95+123.642C842.471+123.048+847.929+123.841+856.324+126.021C865.798+128.563+870.591+131.515+870.703+134.875C870.701+135.715+870.038+137.003+868.714+138.74C867.39+140.477+866.727+141.765+866.725+142.605L866.513+232.245L885.25+224.91C886.332+224.072+888.375+223.117+891.377+222.044C893.058+221.808+897.552+224.099+904.861+228.916C912.17+233.733+915.582+236.921+915.098+238.48Z" fill="#f5f5f5" stroke-linecap="butt" opacity="1" stroke-linejoin="round"/>
</g>
<path stroke="#000000" stroke-opacity="0" stroke-width="5" d="M1053.5+142.519C1053+141.842+1052.5+141.164+1052+140.487" fill="#f8f8f8" stroke-linecap="round" opacity="1" stroke-linejoin="round"/>
<path d="M790.868+318.077C790.1+318.287+789.384+318.574+788.587+318.734C785.823+319.286+783.074+319.461+780.399+319.327C777.189+322.56+773.467+325.126+768.962+326.859C766.494+327.808+764.043+328.275+761.618+328.452C761.502+328.661+761.428+328.866+761.305+329.077C757.64+335.403+752.225+340.404+744.368+342.546C743.961+342.657+743.583+342.641+743.18+342.734C740.807+345.541+737.708+347.912+733.368+349.359C726.488+351.652+719.527+350.444+714.024+346.984C710.395+344.702+708.075+342.045+706.18+338.984C705.55+337.965+705.107+336.905+704.618+335.859C699.801+338.286+694.403+339.525+688.587+339.077C680.509+338.456+674.838+336.009+668.649+331.796C668.227+332.523+668.084+332.659+667.524+333.671C667.454+333.799+666.388+335.76+666.055+336.359C663.268+341.377+661.271+344.539+658.524+347.827C653.505+353.836+647.332+358.144+639.274+359.609C637.535+359.925+635.784+360.044+634.055+359.984C633.576+360.615+633.192+361.348+632.68+361.952C629.603+365.59+626.013+368.573+621.618+370.671C615.709+373.492+609.078+374.279+602.524+372.64C597.587+371.406+593.864+369.166+590.118+366.077C588.591+364.818+587.345+363.604+585.399+361.702C583.715+361.649+582.029+361.49+580.243+361.077C573.119+359.433+567.353+355.036+563.462+348.921C560.749+344.659+559.908+340.876+559.649+336.609C559.532+334.673+559.583+332.789+559.743+330.671C559.751+330.561+559.797+330.371+559.805+330.265C557.754+328.905+555.796+327.394+553.962+325.64C552.672+324.407+551.426+322.958+550.149+321.515C549.902+321.77+549.88+321.772+549.587+322.077C549.302+322.374+549.138+322.52+548.993+322.671C544.175+327.683+541.337+330.321+537.055+333.109C529.816+337.822+521.624+340.102+512.68+338.984C508.701+338.486+505.196+337.186+501.962+335.39C500.534+338.253+499.208+340.703+497.462+343.202C492.65+350.089+486.41+355.292+478.243+358.015C469.591+360.899+461.27+359.475+453.93+355.39C450.152+353.287+447.684+351.299+443.555+347.546C442.378+346.476+442.21+346.365+441.805+346.015C441.283+345.895+440.536+345.713+439.93+345.577C435.732+347.889+430.69+348.928+425.212+348.015C421.359+347.373+418.087+345.848+415.274+343.827C408.213+345.432+402.674+345.535+392.93+344.952C392.554+344.93+392.55+344.944+392.18+344.921C387.555+344.642+385.952+344.728+384.212+344.859C383.777+345.096+383.219+345.382+383.149+345.421C380.596+346.815+378.752+347.723+376.524+348.577C374.556+349.333+372.592+349.918+370.399+350.265C366.65+350.859+362.763+350.729+358.649+349.359C357.378+348.935+356.335+348.358+355.274+347.796C350.065+348.316+344.673+347.489+339.555+344.515C337.517+346.6+335.545+348.356+333.305+349.796C324.889+355.207+315.475+356.06+306.68+353.171C306.383+353.296+306.146+353.461+305.837+353.577C303.965+354.279+302.224+354.619+300.524+354.827C297.52+360.489+294.659+364.726+290.524+368.171C286.626+371.42+282.599+374.109+278.368+376.265C271.697+379.664+264.805+381.609+257.274+382.546C257.062+382.601+256.833+382.622+256.618+382.671C256.608+382.672+256.597+382.67+256.587+382.671C254.961+383.04+253.263+383.296+251.462+383.296C250.912+383.296+250.474+383.166+249.962+383.14C248.424+383.207+245.948+383.207+244.024+383.234C244.302+383.864+244.646+384.442+244.868+385.109C248.713+396.644+242.466+409.107+230.93+412.952C229.803+413.328+228.682+413.479+227.555+413.765C228.937+416.841+229.845+420.162+230.118+423.702C230.484+428.465+229.76+432.687+228.305+437.171C227.925+438.343+227.263+439.829+226.837+440.921C227.049+441.194+227.29+441.417+227.493+441.702C230.286+445.63+231.615+449.87+231.962+454.202C232.022+454.954+231.865+455.71+231.868+456.452C234.315+458.415+236.546+460.774+238.243+463.827C240.575+468.025+241.519+472.36+241.493+476.64C244.065+475.589+246.856+474.984+249.805+474.984C252.553+474.984+257.953+474.984+260.618+474.984C272.778+474.984+282.649+484.824+282.649+496.984C282.649+507.966+274.572+517.007+264.055+518.671C260.552+522.765+255.596+525.577+249.962+526.265C249.552+528.399+248.93+530.475+247.962+532.484C247.222+534.017+246.503+535.16+245.68+536.265C245.007+537.169+244.375+537.884+243.649+538.671C242.986+539.39+242.418+539.955+241.087+541.296C239.675+542.718+239.128+543.343+238.274+544.234C240.025+546.94+241.362+549.918+241.743+554.109C241.915+556.004+241.841+557.752+241.649+559.421C245.859+562.964+249.04+567.518+250.493+573.14C251.522+577.123+251.473+580.85+250.774+584.39C252.34+586.209+253.685+587.998+254.805+590.015C255.461+591.194+255.893+592.495+256.368+593.765C257.076+594.274+257.795+594.745+258.462+595.327C264.896+600.957+268.156+608.766+267.805+616.952C267.803+617.018+267.777+617.074+267.774+617.14C268.13+617.295+268.312+617.424+268.68+617.577C270.337+618.273+271.893+618.748+273.524+619.327C281.337+614.548+290.87+612.829+299.618+617.202C304.247+619.517+307.667+623+309.837+627.046C309.964+627.013+310.084+626.954+310.212+626.921C310.497+626.851+310.746+626.854+311.024+626.796C313.856+624.719+317.119+623.122+321.212+622.452C327.06+621.495+332.957+622.814+337.805+626.046C341.002+628.177+343.57+631.165+345.368+634.671C347.329+636.216+348.977+638.231+350.43+640.484C350.542+640.509+350.63+640.52+350.743+640.546C351.651+640.753+352.403+640.944+353.868+641.296C358.664+642.446+360.412+642.765+361.524+642.765C363.21+642.765+365.647+642.343+370.337+641.265C370.772+641.165+371.183+641.061+371.93+640.89C383.17+638.272+388.255+637.459+395.868+638.046C399.51+638.326+402.296+639.036+405.93+640.171C406.7+639.495+407.536+638.674+408.399+638.015C411.569+635.595+414.914+633.763+419.024+632.64C421.492+631.967+423.885+631.685+426.212+631.734C431.206+627.318+439.346+622.091+447.712+617.859C459.237+612.026+468.957+608.738+478.243+609.452C483.099+609.826+487.519+611.229+491.555+613.452C494.017+614.807+495.552+615.938+498.149+617.984C498.223+618.042+498.204+618.02+498.274+618.077C498.712+618.422+498.821+618.51+498.993+618.64C500.793+619.515+503.572+620.53+508.712+622.14C508.212+621.983+513.147+623.525+514.493+623.952C514.707+623.821+514.866+623.64+515.087+623.515C519.432+620.999+524.352+619.609+529.68+619.609C531.867+619.609+534.009+619.814+536.118+620.234C542.036+621.413+545.793+623.268+552.243+627.14C554.273+628.359+554.55+628.53+555.149+628.859C555.296+628.939+555.36+628.992+555.462+629.046C555.479+629.052+555.478+629.044+555.493+629.046C555.893+629.115+556.434+629.155+557.149+629.202C558.71+629.31+564.219+629.326+564.305+629.327C570.083+629.295+572.891+629.336+576.555+629.702C582.689+630.317+588.134+631.725+593.305+634.546C594.709+635.311+595.92+636.211+597.087+637.14C598.123+636.775+599.411+636.21+600.555+635.89C605.045+634.637+609.483+634.126+614.274+634.765C616.504+635.062+616.751+635.108+622.649+635.827C627.725+636.447+630.728+636.841+634.055+637.359C636.932+637.808+639.515+638.423+642.18+638.984C642.282+638.948+642.385+638.896+642.493+638.859C643.967+638.345+645.433+637.931+647.024+637.609C651.686+636.664+656.52+636.763+661.399+638.265C663.334+638.86+665.12+639.674+666.837+640.577C670.149+637.455+673.496+635.189+678.337+633.327C683.199+631.458+688.202+630.798+693.18+631.421C694.317+631.564+695.253+631.851+696.243+632.077C697.133+631.243+698.036+630.41+699.149+629.577C703.505+626.326+708.595+624.244+714.368+623.765C718.278+623.439+721.872+623.959+725.274+625.077C725.448+625.134+725.576+625.207+725.743+625.265C726.537+624.873+726.736+624.821+729.212+623.515C733.459+621.27+736.251+619.922+739.649+618.64C744.922+616.648+750.142+615.515+755.68+615.515C758.346+615.515+760.86+615.818+763.305+616.421C770.14+613.517+776.292+613.158+782.93+614.359C784.453+613.42+785.975+612.608+787.868+611.859C793.19+609.756+799.073+609.229+805.055+610.859C811.611+612.647+816.601+616.284+820.837+621.14C822.574+623.131+823.993+625.299+825.649+627.827C825.937+627.818+826.199+627.765+826.493+627.765C831.216+627.765+835.545+628.759+840.087+630.452C842.851+631.484+845.384+632.639+848.805+634.359C849.219+634.566+849.622+634.795+850.18+635.077C852.038+636.019+852.485+636.21+853.243+636.577C854.841+636.101+856.477+635.733+858.43+635.515C863.257+634.975+868.096+635.646+872.774+637.515C874.037+638.02+875.086+638.717+876.212+639.296C877.02+638.799+877.764+638.236+878.649+637.796C883.591+635.329+889.079+634.189+894.899+634.64C903.446+635.297+910.331+637.265+918.587+640.984C920.799+638.84+923.304+636.962+926.618+635.702C930.924+634.066+934.966+633.862+938.868+634.452C939.289+634.516+939.639+634.627+940.024+634.702C944.376+632.728+949.213+632.085+954.024+632.952C956.983+633.486+959.497+634.404+961.774+635.671C963.774+633.848+965.858+632.208+968.337+630.859C972.53+628.575+977.18+627.292+982.055+627.359C983.681+627.381+985.329+627.562+986.993+627.89C988.077+628.104+989.011+628.54+990.024+628.859C989.048+621.495+991.704+613.84+997.93+608.859C1001.49+606.01+1005.67+604.45+1009.9+604.109C1014.2+603.761+1018.51+604.832+1022.34+606.952C1022.39+606.562+1022.4+606.191+1022.46+605.796C1022.64+604.706+1022.96+603.704+1023.21+602.671C1022.82+602.257+1022.35+601.966+1021.99+601.515C1018.71+597.409+1017.24+592.491+1017.27+587.609C1009.76+584.047+1003.93+576.778+1003.93+566.734C1003.93+549.132+993.454+553.2+1019.99+545.515C1020.5+545.368+1020.97+545.265+1021.49+545.14C1022.12+544.99+1022.87+544.811+1023.81+544.609C1023.96+544.576+1024.24+544.518+1024.4+544.484C1024.15+543.436+1023.83+542.41+1023.68+541.327C1018.97+540.565+1015.31+539.777+1011.65+538.421C1006.9+536.662+1002.71+534.194+999.118+530.452C994.143+525.272+991.337+518.483+991.337+511.14C991.337+503.22+994.671+496.665+999.837+491.921C999.885+491.009+999.804+490.146+999.962+489.202C1001+482.996+1004.33+478.09+1008.74+474.734C1009.37+474.259+1009.99+473.937+1010.62+473.546C1010.79+472.495+1010.99+471.448+1011.27+470.39C1014.03+460.276+1021.3+452.621+1031.37+450.046C1031.56+449.997+1031.74+449.995+1031.93+449.952C1031.95+448.957+1032.1+447.956+1032.24+446.952C1028.26+443.895+1025.51+441.586+1022.81+438.702C1019.88+435.589+1017.54+432.217+1015.71+428.546C1015.06+428.18+1014.42+427.873+1013.77+427.421C1009.22+424.251+1005.65+419.504+1004.37+413.109C1004.01+411.3+1003.86+409.461+1003.9+407.64C1002.03+405.041+1000.54+402.088+999.618+398.702C998.029+392.876+997.768+387.187+999.805+381.265C1000.23+380.025+1000.9+378.979+1001.49+377.859C1000.24+377.41+998.925+377.032+997.805+376.421C982.721+368.193+977.552+351.092+984.43+336.796C983.551+336.339+982.666+335.914+981.805+335.39C981.104+334.962+980.502+334.503+979.868+334.077C979.52+334.696+979.246+335.324+978.837+335.984C974.737+342.597+969.202+347.651+961.149+349.952C954.583+351.829+948.026+351.671+941.899+349.64C941.885+349.635+941.882+349.614+941.868+349.609C941.166+350.329+940.602+351.083+939.774+351.796C933.758+356.979+926.092+359.676+917.712+359.077C914.964+358.881+912.429+358.288+910.024+357.421C908.858+358.916+907.597+360.366+905.993+361.827C896.85+370.161+884.301+371.7+872.805+365.952C867.822+363.461+863.91+359.972+860.743+355.702C859.194+353.614+858.08+351.539+856.774+349.077C855.743+348.925+854.723+348.791+853.68+348.546C850.555+347.812+847.625+346.451+844.805+344.765C833.481+348.008+822.882+344.447+814.274+335.921C814.219+335.919+814.172+335.923+814.118+335.921C807.538+335.675+801.074+333.117+796.118+327.452C793.592+324.565+791.945+321.383+790.868+318.077Z" opacity="1" fill="#fffbe8"/>
<g opacity="1">
<path d="M25.0494+397.284L184.962+397.173L185.049+522.061L25.1368+522.173L25.0494+397.284Z" opacity="1" fill="#ffdd1f"/>
<path d="M25.0487+272.284L184.961+272.173L185.049+397.061L25.136+397.173L25.0487+272.284Z" opacity="1" fill="#ff934f"/>
<path d="M25.0487+147.284L184.961+147.173L185.049+272.061L25.1361+272.173L25.0487+147.284Z" opacity="1" fill="#ff5c8d"/>
<path d="M25.0488+22.2842L184.961+22.1727L185.049+147.061L25.1362+147.173L25.0488+22.2842Z" opacity="1" fill="#3772fb"/>
<path stroke="#000000" stroke-opacity="0" stroke-width="5" d="M184.97+22.179C184.931+22.1811+184.835+149.243+184.997+149.196C208.329+142.502+236.154+143.158+260.506+163.493C260.524+163.508+355.94+67.866+355.758+67.7404C310.582+36.6624+261.844+18.0046+184.97+22.179Z" fill="#16db93" stroke-linecap="round" opacity="1" stroke-linejoin="round"/>
<path stroke="#000000" stroke-opacity="0" stroke-width="5" d="M242.558+144.118C242.059+143.441+241.561+142.763+241.062+142.086" fill="#f8f8f8" stroke-linecap="round" opacity="1" stroke-linejoin="round"/>
<path stroke="#000000" stroke-opacity="0" stroke-width="5" d="M355.752+67.7389C355.749+67.7365+260.511+163.48+260.515+163.484C265.617+168.444+280.892+180.749+282.935+207.757C282.948+207.918+433.551+207.977+433.55+207.767C433.353+161.729+409.312+104.898+355.752+67.7389Z" fill="#ffdd1f" stroke-linecap="round" opacity="1" stroke-linejoin="round"/>
<path d="M283.187+208.042C283.073+222.288+281.949+234.961+262.492+255.826C262.385+255.941+357.082+350.357+357.172+350.29C444.415+284.696+433.345+198.845+433.624+207.486" opacity="1" fill="#ff5c8d"/>
<path d="M262.124+421.981C261.493+421.355+261.705+421.601+262.97+422.459" opacity="1" fill="#3772fb"/>
<path d="M185+271.767C217.68+282.469+247.901+269.7+262.485+255.825C262.519+255.793+357.209+350.26+357.175+350.285C306.703+387.886+233.517+402.144+184.867+396.977" opacity="1" fill="#3772fb"/>
<path d="M25.0487+522.285L184.961+522.173L185.049+647.062L25.1361+647.173L25.0487+522.285Z" opacity="1" fill="#16db93"/>
</g>
<g opacity="1">
<path d="M395.23+426.938C406.75+432.458+412.51+441.878+412.51+455.198C412.51+464.918+408.25+477.218+399.73+492.098C390.25+508.778+380.59+517.118+370.75+517.118C368.83+517.118+366.7+516.278+364.36+514.598C362.02+512.918+359.71+511.298+357.43+509.738L357.43+537.278C357.43+538.598+357.73+540.218+358.33+542.138C359.17+544.658+359.71+546.398+359.95+547.358C360.19+548.318+359.74+550.088+358.6+552.668C357.46+555.248+355.81+556.658+353.65+556.898C351.49+557.018+346.81+555.638+339.61+552.758C332.05+549.758+327.37+547.058+325.57+544.658C324.49+543.098+324.49+540.818+325.57+537.818C326.41+535.538+326.83+533.798+326.83+532.598L326.83+432.338C326.83+431.738+326.41+430.568+325.57+428.828C324.73+427.088+324.37+425.858+324.49+425.138C325.21+419.978+327.37+417.398+330.97+417.398C331.57+417.398+334+417.998+338.26+419.198C342.52+420.398+345.91+421.058+348.43+421.178C352.03+421.298+356.62+420.458+362.2+418.658C367.78+416.858+371.83+415.958+374.35+415.958C375.79+415.958+377.23+416.078+378.67+416.318C381.43+417.038+384.31+418.658+387.31+421.178C390.91+424.178+393.55+426.098+395.23+426.938ZM380.29+439.358C377.53+439.358+373.69+440.708+368.77+443.408C363.85+446.108+360.07+449.078+357.43+452.318L357.43+491.378C363.91+489.578+370.03+482.918+375.79+471.398C381.07+461.078+383.71+452.318+383.71+445.118C383.71+441.278+382.57+439.358+380.29+439.358Z" opacity="1" fill="#3772fb"/>
</g>
<g opacity="1">
<path d="M549.985+542.857C549.865+543.817+549.625+546.157+549.265+549.877C549.145+551.797+548.665+553.237+547.825+554.197C547.225+554.557+546.205+554.737+544.765+554.737C540.805+554.737+535.885+553.837+530.005+552.037C523.645+550.237+519.325+548.137+517.045+545.737C516.085+544.777+515.125+541.537+514.165+536.017C512.845+528.817+511.345+522.817+509.665+518.017C505.105+518.617+498.445+520.117+489.685+522.517C480.925+524.917+475.225+526.957+472.585+528.637C470.785+533.317+468.385+539.017+465.385+545.737C465.025+547.297+464.635+548.737+464.215+550.057C463.795+551.377+462.745+552.517+461.065+553.477C460.705+553.597+460.165+553.657+459.445+553.657C456.565+553.657+451.735+552.307+444.955+549.607C438.175+546.907+434.665+545.137+434.425+544.297C433.945+542.857+435.085+539.137+437.845+533.137C441.685+524.497+443.905+519.217+444.505+517.297C441.985+515.017+440.725+512.737+440.725+510.457C440.725+509.977+440.785+509.377+440.905+508.657C441.145+507.337+444.805+505.057+451.885+501.817L475.105+430.357C475.465+429.037+475.525+426.637+475.285+423.157C475.045+420.277+475.405+418.417+476.365+417.577C476.965+417.097+478.405+416.857+480.685+416.857C486.325+416.857+494.365+418.147+504.805+420.727C515.245+423.307+521.485+425.617+523.525+427.657C524.245+439.657+526.945+457.657+531.625+481.657C537.625+511.297+543.745+531.697+549.985+542.857ZM503.005+493.717C501.445+486.877+500.485+482.377+500.125+480.217C498.805+473.017+497.905+465.517+497.425+457.717C495.025+462.997+492.205+470.317+488.965+479.677C485.485+489.517+483.625+495.697+483.385+498.217C485.665+497.377+492.205+495.877+503.005+493.717Z" opacity="1" fill="#16db93"/>
</g>
<g opacity="1">
<path d="M691.479+530.257C692.559+532.057+690.429+536.557+685.089+543.757C679.749+550.957+675.279+554.497+671.679+554.377C667.839+554.257+664.779+552.397+662.499+548.797C662.139+547.717+661.239+546.157+659.799+544.117L621.819+512.257L621.819+542.317C621.819+543.397+622.329+544.867+623.349+546.727C624.369+548.587+624.879+549.937+624.879+550.777C624.879+554.017+622.539+555.817+617.859+556.177C614.259+556.537+608.919+555.937+601.839+554.377C594.159+552.817+590.319+551.197+590.319+549.517C590.319+549.037+590.469+548.317+590.769+547.357C591.069+546.397+591.219+545.257+591.219+543.937L591.219+430.717C591.219+429.997+591.039+429.337+590.679+428.737C590.319+428.137+590.139+427.657+590.139+427.297C590.259+424.417+592.659+422.737+597.339+422.257C598.779+422.017+602.049+422.527+607.149+423.787C612.249+425.047+615.879+425.617+618.039+425.497C620.079+425.377+624.249+423.877+630.549+420.997C636.849+418.117+642.339+416.677+647.019+416.677C648.819+416.677+650.679+416.857+652.599+417.217C655.959+417.817+659.019+419.197+661.779+421.357C664.539+423.517+667.179+425.677+669.699+427.837C676.299+433.477+679.719+436.477+679.959+436.837C683.079+440.077+684.759+443.677+684.999+447.637C685.719+460.117+673.839+476.197+649.359+495.877C654.399+499.957+665.499+509.977+682.659+525.937C683.739+526.177+685.299+526.777+687.339+527.737C688.539+528.337+689.919+529.177+691.479+530.257ZM651.699+439.717C646.059+439.717+636.099+444.997+621.819+455.557L621.819+480.397C626.979+478.477+633.759+472.897+642.159+463.657C650.559+454.417+654.759+447.517+654.759+442.957C654.759+440.797+653.739+439.717+651.699+439.717Z" opacity="1" fill="#ffdd1f"/>
</g>
<g opacity="1">
<path d="M816.874+444.037C815.914+444.037+814.594+443.677+812.914+442.957C811.234+442.237+809.854+441.997+808.774+442.237L790.234+446.737L790.234+532.057C790.234+535.177+791.074+538.597+792.754+542.317C793.234+543.397+793.114+545.437+792.394+548.437C791.674+551.797+790.534+553.897+788.974+554.737C788.734+554.857+788.134+554.917+787.174+554.917C783.214+554.917+777.694+554.197+770.614+552.757C762.694+551.197+758.014+549.637+756.574+548.077C754.894+546.157+754.954+543.577+756.754+540.337C758.314+537.457+759.094+535.417+759.094+534.217L759.094+453.937L746.314+456.817C745.714+456.937+744.724+457.417+743.344+458.257C741.964+459.097+740.794+459.397+739.834+459.157C737.074+458.437+733.294+455.197+728.494+449.437C723.694+443.677+721.594+439.777+722.194+437.737C723.154+435.217+725.974+433.357+730.654+432.157C731.854+431.797+733.414+431.737+735.334+431.977C737.254+432.097+738.754+432.097+739.834+431.977L802.474+417.577C803.074+417.457+804.814+416.797+807.694+415.597C809.614+414.757+811.354+414.457+812.914+414.697C816.274+415.177+818.554+416.377+819.754+418.297C820.594+419.617+821.494+422.077+822.454+425.677C823.654+429.877+824.254+433.537+824.254+436.657C824.254+439.057+823.924+440.857+823.264+442.057C822.604+443.257+820.474+443.917+816.874+444.037Z" opacity="1" fill="#ff934f"/>
</g>
<path d="M769.558+349.118L769.319+347.112C769.217+347.068+768.949+347.075+768.862+347.024C768.654+346.901+768.476+346.751+768.297+346.602C768.024+346.587+767.597+346.65+767.335+346.618C765.164+346.347+763.479+345.452+762.972+343.387C763.151+342.487+763.254+342.788+763.359+342.375C762.2+341.155+762.106+339.518+763.082+338.264C763.154+338.171+763.258+338.154+763.331+338.069C763.187+338.07+762.988+338.136+762.826+338.125C761.19+338.015+759.752+337.069+759.332+335.358C759.066+334.276+759.354+333.441+759.841+332.718C759.619+332.271+759.555+331.843+759.514+331.431C757.811+331.018+756.451+330.05+756.563+327.938C756.672+325.897+758.06+324.92+759.841+324.344C759.909+324.111+759.793+323.914+759.93+323.672C759.952+323.633+760.007+323.66+760.03+323.623C759.72+323.604+759.306+323.57+759.066+323.543C758.646+323.495+758.301+323.436+757.948+323.322C757.522+323.183+757.119+322.978+756.72+322.624C756.038+322.018+755.876+321.158+755.968+320.243C754.849+319.748+753.964+319.051+753.644+317.745C753.538+317.315+753.856+317.055+753.928+316.687C753.305+316.561+752.621+316.505+752.098+316.286C751.72+316.129+751.354+315.962+751.023+315.682C750.115+314.911+749.634+313.713+750.254+312.344C750.666+311.435+751.249+310.972+751.996+310.689C752.27+310.586+752.569+310.535+752.853+310.484C753.406+310.384+753.898+310.371+755.18+310.302C755.393+310.291+755.373+310.26+755.584+310.248C756.559+310.195+757.142+310.17+757.354+310.124C757.485+310.095+759.606+309.712+760.938+309.491C760.787+309.481+760.631+309.476+760.482+309.451C760.216+309.407+759.957+309.349+759.667+309.225C758.873+308.885+758.172+308.311+757.909+307.243C757.478+305.487+758.508+304.254+759.92+303.622C759.234+302.757+759.049+301.689+759.663+300.611C758.571+300.24+757.663+299.611+757.342+298.304C757.174+297.62+757.409+297.059+757.562+296.482C757.16+296.552+756.923+296.626+756.502+296.691C755.818+296.796+755.241+296.877+754.886+296.908C754.722+296.923+754.591+296.917+754.43+296.916C754.219+296.92+754.226+296.93+753.516+296.787C752.807+296.613+752.798+296.617+751.559+295C751.596+292.586+751.604+292.6+752.415+291.924C753.173+291.431+753.144+291.398+753.366+291.334C753.542+291.275+753.555+291.313+753.669+291.281C753.784+291.25+753.923+291.212+754.072+291.179C754.898+290.998+757.996+290.435+760.735+289.97C761.335+289.801+761.721+289.766+762.299+289.61L762.117+287.938L554.671+312.502L554.674+312.693C556.099+312.752+557.113+312.996+557.831+313.599C559.118+314.683+559.168+316.467+558.107+317.662C557.711+318.108+557.337+318.339+556.857+318.544C556.736+318.596+556.541+318.648+556.404+318.695C560.374+319.619+561.051+319.759+562.556+320.031C562.382+319.999+562.478+319.99+562.606+319.982C563.304+319.94+563.596+319.957+564.126+320.053C565.53+320.307+566.74+321.26+566.962+322.831C567.115+323.91+566.671+324.786+565.996+325.382C565.703+325.64+565.404+325.786+565.094+325.923C564.796+326.056+564.48+326.143+564.137+326.226C563.716+326.329+563.223+326.45+562.624+326.538C562.213+326.598+561.763+326.649+561.31+326.703C560.757+326.768+560.87+326.734+561.006+326.708C560.056+326.895+559.813+327.009+559.039+327.17C559.103+327.232+559.18+327.243+559.244+327.31C560.389+328.5+560.432+329.846+559.972+331.127C560.142+331.173+560.3+331.18+560.481+331.262C561.421+331.69+562.176+332.556+562.248+333.77C562.279+334.277+562.002+334.575+561.865+334.972C562.356+334.987+562.6+335.037+563.133+335.047C564.425+335.073+572.042+335.081+572.401+335.089C572.639+335.094+572.848+335.115+573.01+335.127C573.173+335.139+573.165+335.12+573.466+335.167C573.684+335.208+573.689+335.217+574.179+335.395C574.539+335.558+574.509+335.557+575.103+336.05C575.824+336.957+575.822+336.989+575.858+338.574C575.391+340.877+574.137+341.328+568.791+342.66C567.775+342.913+566.495+343.203+565.21+343.484C565.414+343.723+565.723+343.837+565.881+344.143C566.428+345.202+566.229+346.353+565.582+347.21C565.259+347.638+564.905+347.901+564.485+348.137C564.264+348.262+563.987+348.384+563.731+348.485C564.764+349.354+565.519+350.438+565.212+351.954C565.076+352.628+564.761+353.119+564.379+353.499C564.844+354.104+565.206+354.804+565.027+355.69C564.809+356.767+564.232+357.571+563.452+358.204C563.532+358.204+563.725+358.197+563.806+358.198C564.763+358.211+565.551+358.285+566.19+358.398C567.738+358.673+568.841+359.217+569.324+360.836C569.587+361.718+569.388+362.527+568.961+363.187C568.745+363.521+568.545+363.743+568.267+363.964C567.979+364.191+567.629+364.373+567.264+364.554C566.786+364.792+566.2+365.056+565.405+365.35C565.336+365.376+565.19+365.419+565.103+365.451C565.199+365.477+565.517+365.461+565.61+365.49C566.733+365.844+567.58+366.411+567.98+367.701C568.481+369.316+567.722+370.431+566.575+371.217C565.752+371.781+564.478+372.269+562.452+372.863C562.308+372.905+562.192+372.97+562.05+373.013L562.112+373.634L769.558+349.118Z" fill-opacity="0.406522" fill="#8cafff" opacity="1"/>
<g opacity="1">
<path d="M972.961+429.997C973.681+435.637+972.241+439.177+968.641+440.617C966.601+441.457+965.641+441.877+965.761+441.877C958.801+451.597+949.621+468.517+938.221+492.637C927.541+515.557+921.961+529.357+921.481+534.037C921.361+534.877+921.601+536.377+922.201+538.537C922.801+540.697+923.041+542.497+922.921+543.937C922.201+551.257+920.161+555.157+916.801+555.637C915.121+555.877+910.951+555.067+904.291+553.207C897.631+551.347+893.161+549.817+890.881+548.617C886.801+545.977+884.761+543.337+884.761+540.697C884.761+539.497+885.181+538.057+886.021+536.377C887.701+532.177+891.241+523.537+896.641+510.457C886.681+491.977+879.961+479.257+876.481+472.297C869.521+458.257+864.601+446.737+861.721+437.737C861.481+437.257+860.791+436.477+859.651+435.397C858.511+434.317+857.941+433.297+857.941+432.337C857.941+430.777+860.281+428.377+864.961+425.137C874.921+418.177+881.761+414.937+885.481+415.417C887.401+415.657+889.141+416.797+890.701+418.837C892.021+420.397+892.801+421.837+893.041+423.157C893.041+425.197+893.401+428.497+894.121+433.057C896.881+446.497+902.641+461.017+911.401+476.617C918.121+461.857+921.901+453.697+922.741+452.137C927.301+443.017+932.461+434.437+938.221+426.397C938.701+424.717+939.541+422.497+940.741+419.737C943.141+417.217+946.381+416.197+950.461+416.677C953.341+417.037+957.751+418.927+963.691+422.347C969.631+425.767+972.721+428.317+972.961+429.997Z" opacity="1" fill="#ff5c8d"/>
</g>
<path d="M684.141+301.541C691.525+304.217+685.577+315.243+679.104+311.201C667.108+313.25+655.143+315.558+643.52+319.228C645.443+317.453+644.531+313.442+642.354+311.943C654.931+313.495+670.148+309.454+680.661+317.407C682.148+319.416+681.88+322.259+680.587+324.286C671.258+331.206+658.292+330.622+647.645+335.123C647.015+332.624+649.405+328.586+646.928+326.956C660.649+327.065+674.758+325.204+688.209+328.548C690.103+330.766+689.391+334.086+689.106+336.732C688.869+337.573+688.588+338.39+687.967+339.03C672.161+343.53+655.027+342.409+639.255+347.621C637.854+346.141+641.813+340.784+638.896+339.636C655.616+339.309+672.443+339.531+689.032+341.714C690.887+344.69+691.205+349.234+689.572+352.371C673.588+354.232+656.637+360.37+640.75+359.743C634.001+355.183+642.104+346.688+648.511+348.733C660.535+346.25+672.732+344.684+684.857+342.871C685.624+344.706+686.947+350.431+685.436+351.856C669.202+350.104+652.833+350.305+636.568+350.007C634.782+349.626+633.227+348.55+632.031+347.196C630.787+344.326+632.421+341.07+633.921+338.615C649.17+332.36+666.428+332.53+682.624+329.855C684.637+330.702+682.893+335.963+683.875+338.209C669.888+334.812+653.526+341.155+640.932+334.909C640.311+332.046+640.33+328.565+642.118+326.115C652.012+321.686+662.936+320.313+673.252+317.196C671.087+319.186+671.793+322.549+673.823+324.485C661.422+320.747+646.568+326.491+635.733+319.287C634.598+317.696+634.543+315.56+635.094+313.746C635.631+312.276+636.727+311.033+638.013+310.165C652.744+305.528+668.696+299.982+684.141+301.541" fill-opacity="0.417596" fill="#fffae8" opacity="1"/>
</g>
</svg>
