<?xml version="1.0" ?><!DOCTYPE svg  PUBLIC '-//W3C//DTD SVG 1.1//EN'  'http://www.w3.org/Graphics/SVG/1.1/DTD/svg11.dtd'><svg enable-background="new 0 0 512 512" height="512px" id="Layer_1" version="1.1" viewBox="0 0 512 512" width="512px" xml:space="preserve" xmlns="http://www.w3.org/2000/svg" xmlns:xlink="http://www.w3.org/1999/xlink"><g><path clip-rule="evenodd" d="M149.426,305.102c15.485,2.385,29.573,4.555,44.558,6.865   c0,13.325,0.205,25.945-0.065,38.55c-0.21,9.705,3.78,14.44,13.82,14.016c8.087-0.351,16.205-0.235,24.303-0.03   c9.675,0.245,14.277-4.15,14.105-13.92c-0.195-11.221-0.045-22.445-0.045-34.641c17.745-0.78,34.782-1.524,53.673-2.354   c0,8.765-0.005,17.024,0,25.285c0.005,21.439,0.005,21.439,21.845,21.42c5.99-0.01,11.99-0.215,17.96,0.05   c8.67,0.39,12.061-3.83,11.94-12.14c-0.19-13.306-0.05-26.615-0.05-40.886c55.665-10.29,108.97-26.195,160.53-49.365   c-25.689,52.301-59.17,98.62-102.33,138.121c-1.19-1.28-2.01-1.761-2-2.226c0.42-24.035-4.391-20.785-22.561-20.895   c-33.33-0.2-29.09-1.875-29.29,29.665c-0.03,5.285-0.81,10.72,0.16,15.825c2.495,13.17-3.51,20.26-15.26,24.359   c-9.87,3.45-19.556,7.4-31.146,11.82c0-12.035-0.355-22.435,0.1-32.8c0.445-10.115-4.109-14.011-13.875-13.79   c-8.08,0.189-16.17-0.75-24.25-0.705c-9.045,0.045-14.565,3.685-14.195,14.015c0.465,12.92,0.113,25.87,0.113,41.4   c-17.948-2.82-34.456-5.16-50.801-8.32c-1.847-0.359-3.865-5.29-3.985-8.17c-0.462-11.229-0.382-22.49-0.132-33.729   c0.17-7.641-3.772-11.101-10.78-11.341c-9.15-0.31-18.315,0-27.47-0.189c-9.26-0.195-13.802,3.859-13.22,13.38   c0.277,4.545,0.045,9.12,0.045,16.275C82.813,387.441,37.853,326.792,0,256.512c18.578,7.549,34.823,14.559,51.368,20.759   c13.155,4.93,26.802,8.53,39.93,13.52c2.867,1.091,6.167,5.471,6.33,8.5c0.703,12.995,0.603,26.061,0.218,39.081   c-0.27,9.109,4.125,12.979,12.595,13.1c8.805,0.135,17.615,0.09,26.42-0.04c8.442-0.13,12.975-3.895,12.655-13.015   C149.136,327.611,149.426,316.792,149.426,305.102z" fill-rule="evenodd"/><path clip-rule="evenodd" d="M455.67,107.023c0,42.295-24.98,79.503-63.561,94.663   c-40.45,15.893-83.891,6.17-113.011-25.295c-10.173-10.992-9.647-12.4,2.835-21.505c7.98-5.823,13.91-8.382,24.825-3.625   c25.221,10.985,51.57-9.643,49.461-37.468c-0.63-8.297,1.935-12.55,8.5-16.955c19.85-13.303,39.16-27.405,58.75-41.1   c13.165-9.203,14.63-9.47,20.57,4.848C450.13,75.249,456.68,106.706,455.67,107.023z" fill-rule="evenodd"/><path clip-rule="evenodd" d="M58.408,99.034c0.095-10.363,4.672-27.4,14.112-43.201   c3.47-5.805,6.54-8.362,13.183-3.622c22.873,16.317,46.15,32.072,68.998,48.425c2.095,1.498,3.377,5.858,3.077,8.678   c-1.715,16.1,2.88,29.38,16.638,38.453c13.328,8.792,27.058,8.118,40.9,0.587c1.932-1.05,4.94-0.208,7.44-0.07   c0.595,0.035,1.14,0.775,1.728,1.163c22.35,14.73,22.885,18.897,1.688,35.74c-33.19,26.365-69.708,31.877-108.696,14.255   C81.058,182.981,58.333,146.856,58.408,99.034z" fill-rule="evenodd"/><path clip-rule="evenodd" d="M284.339,254.272c-19.117,0-35.592,0-54.075,0   c8.855-15.545,17.08-29.978,26.685-46.835C266.387,223.574,274.839,238.034,284.339,254.272z" fill-rule="evenodd"/></g></svg>